<svg width="371" height="480" viewBox="0 0 371 480" fill="rgb(190,190,190)" xmlns="http://www.w3.org/2000/svg">
<path d="M0 297C-3.01065e-06 309.81 9.58655 322.367 27.6862 333.265C45.7858 344.162 71.6838 352.971 102.48 358.704C133.277 364.437 167.756 366.868 202.056 365.725C236.356 364.581 269.124 359.909 296.69 352.231C324.255 344.552 345.531 334.172 358.133 322.25C370.735 310.329 374.167 297.338 368.045 284.733C361.922 272.127 346.486 260.404 323.466 250.877C300.446 241.349 270.751 234.394 237.705 230.789L185.5 297L0 297Z" fill="rgb(190,190,190)"/>
<path d="M371 171C371 158.19 361.413 145.633 343.314 134.735C325.214 123.838 299.316 115.029 268.52 109.296C237.723 103.563 203.244 101.132 168.944 102.275C134.644 103.419 101.876 108.091 74.3103 115.769C46.7447 123.447 25.4694 133.828 12.867 145.75C0.264629 157.671 -3.1674 170.662 2.95527 183.267C9.07794 195.873 24.5136 207.596 47.5337 217.123C70.5538 226.651 100.249 233.606 133.295 237.211L185.5 171L371 171Z" fill="rgb(190,190,190)"/>
</svg>

