<svg width="412" height="226" viewBox="0 0 412 226" fill="none" xmlns="http://www.w3.org/2000/svg">
<path d="M408 125C408 150.518 386.786 174.743 349.903 192.826C313.282 210.781 262.41 222 206 222C149.59 222 98.718 210.781 62.0969 192.826C25.2136 174.743 4 150.518 4 125C4 99.4823 25.2136 75.2573 62.0969 57.1738C98.718 39.2187 149.59 28 206 28C262.41 28 313.282 39.2187 349.903 57.1738C386.786 75.2573 408 99.4823 408 125Z" stroke="#E2E2E2" stroke-width="8"/>
<path d="M408 101C408 126.518 386.786 150.743 349.903 168.826C313.282 186.781 262.41 198 206 198C149.59 198 98.718 186.781 62.0969 168.826C25.2136 150.743 4 126.518 4 101C4 75.4823 25.2136 51.2573 62.0969 33.1738C98.718 15.2187 149.59 4 206 4C262.41 4 313.282 15.2187 349.903 33.1738C386.786 51.2573 408 75.4823 408 101Z" stroke="#E2E2E2" stroke-width="8"/>
<path d="M343 69C343 85.6847 329.113 101.909 304.085 114.2C279.318 126.363 244.822 134 206.5 134C168.178 134 133.682 126.363 108.915 114.2C83.8872 101.909 70 85.6847 70 69C70 52.3153 83.8872 36.0911 108.915 23.8C133.682 11.6367 168.178 4 206.5 4C244.822 4 279.318 11.6367 304.085 23.8C329.113 36.0911 343 52.3153 343 69Z" stroke="#E2E2E2" stroke-width="8"/>
<path d="M327.5 202L81 202" stroke="#E2E2E2" stroke-width="8"/>
</svg>
