<svg width="635" height="327" viewBox="0 0 635 327" fill="none" xmlns="http://www.w3.org/2000/svg">
<path d="M533 152C533 170.061 517.944 187.536 491.013 200.734C464.345 213.803 427.222 222 386 222C344.778 222 307.655 213.803 280.987 200.734C254.056 187.536 239 170.061 239 152C239 133.939 254.056 116.464 280.987 103.266C307.655 90.1968 344.778 82 386 82C427.222 82 464.345 90.1968 491.013 103.266C517.944 116.464 533 133.939 533 152Z" stroke="#E2E2E2" stroke-width="8"/>
<path d="M631 113C631 125.828 620.346 138.55 600.573 148.304C581.055 157.931 553.811 164 523.5 164C493.189 164 465.945 157.931 446.427 148.304C426.654 138.55 416 125.828 416 113C416 100.172 426.654 87.4498 446.427 77.6964C465.945 68.0688 493.189 62 523.5 62C553.811 62 581.055 68.0688 600.573 77.6964C620.346 87.4498 631 100.172 631 113Z" stroke="#E2E2E2" stroke-width="8"/>
<path d="M408 226C408 251.518 386.786 275.743 349.903 293.826C313.282 311.781 262.41 323 206 323C149.59 323 98.718 311.781 62.0969 293.826C25.2136 275.743 4 251.518 4 226C4 200.482 25.2136 176.257 62.0969 158.174C98.718 140.219 149.59 129 206 129C262.41 129 313.282 140.219 349.903 158.174C386.786 176.257 408 200.482 408 226Z" stroke="#E2E2E2" stroke-width="8"/>
</svg>
