<svg width="219" height="366" viewBox="0 0 219 366" fill="none" xmlns="http://www.w3.org/2000/svg">
<path d="M27.752 62.576C26.2587 62.576 25.0853 62.3627 24.232 61.936C23.336 61.5093 22.7173 61.0187 22.376 60.464C21.992 59.8667 21.8 59.3973 21.8 59.056C21.8 58.3733 22.0133 57.8613 22.44 57.52C22.8667 57.1787 23.4 57.008 24.04 57.008C24.8933 57.008 25.32 57.4133 25.32 58.224C25.32 58.5227 25.192 58.8 24.936 59.056C24.6373 59.2693 24.3173 59.376 23.976 59.376C23.592 59.376 23.2933 59.3333 23.08 59.248C22.8667 59.12 22.76 59.056 22.76 59.056C22.76 59.7387 23.016 60.3147 23.528 60.784C24.04 61.2107 24.6587 61.5307 25.384 61.744C26.152 61.9147 26.8773 62 27.56 62C29.9067 62 32.0613 61.3387 34.024 60.016C36.0293 58.6507 37.8853 56.8587 39.592 54.64C41.3413 52.3787 42.984 49.9467 44.52 47.344C46.056 44.7413 47.8693 42.3307 49.96 40.112C52.0507 37.8933 54.184 36.1013 56.36 34.736C58.536 33.3707 60.4987 32.6667 62.248 32.624C62.76 32.5813 63.016 32.6453 63.016 32.816C63.016 32.9867 62.76 33.1147 62.248 33.2C60.84 33.4133 59.2827 34.2027 57.576 35.568C55.912 36.8907 54.184 38.6613 52.392 40.88C50.6427 43.056 48.9147 45.552 47.208 48.368C45.8427 50.6293 44.2213 52.8693 42.344 55.088C40.4667 57.264 38.312 59.056 35.88 60.464C33.4907 61.872 30.7813 62.576 27.752 62.576ZM30.632 54C31.3573 52.592 32.4453 51.3973 33.896 50.416C35.3467 49.4347 36.968 48.6027 38.76 47.92C40.5947 47.2373 42.4507 46.6613 44.328 46.192C46.2053 45.7227 47.9547 45.3173 49.576 44.976C51.1973 44.592 52.4987 44.208 53.48 43.824C54.2907 43.5253 54.7813 43.2693 54.952 43.056C55.0373 42.928 55.1013 42.8213 55.144 42.736C55.1867 42.608 55.208 42.544 55.208 42.544C55.5493 42.544 56.1253 42.5867 56.936 42.672C57.7893 42.7147 58.472 42.7787 58.984 42.864C58.1307 43.1627 57.2133 43.7813 56.232 44.72C55.2933 45.6587 54.4827 46.64 53.8 47.664C53.1173 48.6453 52.6907 49.4133 52.52 49.968C52.4773 50.224 52.3493 50.352 52.136 50.352C51.9227 50.352 51.8373 50.1387 51.88 49.712C51.9227 49.3707 52.072 48.88 52.328 48.24C52.6267 47.5573 52.9467 46.896 53.288 46.256C53.6293 45.5733 53.928 45.0827 54.184 44.784C53.5867 45.04 52.5413 45.3173 51.048 45.616C49.5973 45.9147 47.912 46.2773 45.992 46.704C44.072 47.088 42.1307 47.6 40.168 48.24C38.2053 48.88 36.4133 49.6693 34.792 50.608C33.2133 51.504 32.0187 52.6133 31.208 53.936C31.08 54.1493 30.9093 54.2987 30.696 54.384C30.4827 54.4693 30.4613 54.3413 30.632 54ZM38.76 42.608C38.1627 42.608 37.5227 42.5227 36.84 42.352C36.1573 42.1813 35.5813 41.8613 35.112 41.392C34.6427 40.88 34.408 40.1547 34.408 39.216C34.408 38.2347 34.792 37.104 35.56 35.824C36.328 34.5013 37.5653 33.2427 39.272 32.048C40.9787 30.8107 43.2613 29.7867 46.12 28.976C48.9787 28.1653 52.4987 27.76 56.68 27.76C57.96 27.76 59.5173 27.9093 61.352 28.208C63.2293 28.464 65.2347 28.592 67.368 28.592C69.032 28.592 70.4187 28.3787 71.528 27.952C72.68 27.5253 73.576 27.0347 74.216 26.48C74.856 25.9253 75.3253 25.4347 75.624 25.008C75.9227 24.5387 76.072 24.304 76.072 24.304C76.2853 23.92 76.4987 23.7707 76.712 23.856C76.9253 23.9413 76.9253 24.1333 76.712 24.432C76.584 24.6027 76.2853 25.0293 75.816 25.712C75.3467 26.3947 74.6427 27.1413 73.704 27.952C72.7653 28.72 71.5067 29.4027 69.928 30C68.3493 30.5973 66.408 30.896 64.104 30.896C63.336 30.896 62.3333 30.832 61.096 30.704C59.8587 30.576 58.5147 30.448 57.064 30.32C55.656 30.1493 54.2907 30 52.968 29.872C51.6453 29.744 50.536 29.68 49.64 29.68C48.1893 29.68 46.6107 29.936 44.904 30.448C43.24 30.96 41.6613 31.664 40.168 32.56C38.6747 33.4133 37.4587 34.3947 36.52 35.504C35.5813 36.6133 35.112 37.7653 35.112 38.96C35.112 39.3013 35.176 39.6853 35.304 40.112C35.432 40.5387 35.688 40.9013 36.072 41.2C36.4987 41.4987 37.1173 41.648 37.928 41.648C39.1653 41.648 40.4027 41.3067 41.64 40.624C42.92 39.9413 44.072 39.1093 45.096 38.128C46.1627 37.104 47.016 36.1013 47.656 35.12C48.296 34.1387 48.616 33.3707 48.616 32.816C48.616 32.3893 48.6587 32.2187 48.744 32.304C48.872 32.3467 48.9573 32.4747 49 32.688C49.128 33.712 48.8933 34.8 48.296 35.952C47.7413 37.104 46.952 38.192 45.928 39.216C44.9467 40.1973 43.816 41.008 42.536 41.648C41.2987 42.288 40.04 42.608 38.76 42.608ZM62.5705 62.576C60.5652 62.576 59.2425 62.128 58.6025 61.232C57.9625 60.2933 57.6425 59.312 57.6425 58.288C57.6425 56.5387 58.0905 54.9173 58.9865 53.424C59.8825 51.888 61.0345 50.5227 62.4425 49.328C63.8505 48.1333 65.3012 47.216 66.7945 46.576C68.3305 45.8933 69.6958 45.552 70.8905 45.552C71.7438 45.552 72.4265 45.68 72.9385 45.936C73.4505 46.1493 73.7065 46.6187 73.7065 47.344C73.7065 48.0267 73.3012 48.752 72.4905 49.52C71.6798 50.288 70.6558 51.0347 69.4185 51.76C68.1812 52.4427 66.8798 53.0827 65.5145 53.68C64.1918 54.2347 62.9758 54.6827 61.8665 55.024C60.7572 55.3653 59.9465 55.536 59.4345 55.536C59.4345 55.536 59.4345 55.4293 59.4345 55.216C59.4345 54.96 59.4345 54.832 59.4345 54.832C59.8185 54.8747 60.4798 54.7467 61.4185 54.448C62.3998 54.1493 63.4878 53.7653 64.6825 53.296C65.8772 52.784 67.0292 52.208 68.1385 51.568C69.2905 50.928 70.2292 50.2453 70.9545 49.52C71.7225 48.7947 72.1065 48.0907 72.1065 47.408C72.1065 47.0667 71.9998 46.768 71.7865 46.512C71.6158 46.256 71.2958 46.128 70.8265 46.128C70.1438 46.128 69.3118 46.4693 68.3305 47.152C67.3918 47.792 66.4318 48.6453 65.4505 49.712C64.4692 50.7787 63.5518 51.9093 62.6985 53.104C61.8452 54.2987 61.1412 55.4507 60.5865 56.56C60.0745 57.6267 59.8185 58.5227 59.8185 59.248C59.8185 60.1013 60.0745 60.7413 60.5865 61.168C61.0985 61.5947 61.8452 61.808 62.8265 61.808C64.5332 61.808 66.1332 61.4027 67.6265 60.592C69.1625 59.7387 70.5492 58.7573 71.7865 57.648C73.0238 56.496 74.0692 55.4293 74.9225 54.448C75.7758 53.424 76.3518 52.7627 76.6505 52.464C76.6505 52.464 76.7145 52.528 76.8425 52.656C77.0132 52.784 77.0985 52.848 77.0985 52.848C76.7998 53.1893 76.2238 53.872 75.3705 54.896C74.5172 55.92 73.4505 57.0293 72.1705 58.224C70.8905 59.4187 69.4398 60.4427 67.8185 61.296C66.1972 62.1493 64.4478 62.576 62.5705 62.576ZM79.508 62.576C77.5027 62.576 76.18 62.128 75.54 61.232C74.9 60.2933 74.58 59.312 74.58 58.288C74.58 56.5387 75.028 54.9173 75.924 53.424C76.82 51.888 77.972 50.5227 79.38 49.328C80.788 48.1333 82.2387 47.216 83.732 46.576C85.268 45.8933 86.6333 45.552 87.828 45.552C88.6813 45.552 89.364 45.68 89.876 45.936C90.388 46.1493 90.644 46.6187 90.644 47.344C90.644 48.0267 90.2387 48.752 89.428 49.52C88.6173 50.288 87.5933 51.0347 86.356 51.76C85.1187 52.4427 83.8173 53.0827 82.452 53.68C81.1293 54.2347 79.9133 54.6827 78.804 55.024C77.6947 55.3653 76.884 55.536 76.372 55.536C76.372 55.536 76.372 55.4293 76.372 55.216C76.372 54.96 76.372 54.832 76.372 54.832C76.756 54.8747 77.4173 54.7467 78.356 54.448C79.3373 54.1493 80.4253 53.7653 81.62 53.296C82.8147 52.784 83.9667 52.208 85.076 51.568C86.228 50.928 87.1667 50.2453 87.892 49.52C88.66 48.7947 89.044 48.0907 89.044 47.408C89.044 47.0667 88.9373 46.768 88.724 46.512C88.5533 46.256 88.2333 46.128 87.764 46.128C87.0813 46.128 86.2493 46.4693 85.268 47.152C84.3293 47.792 83.3693 48.6453 82.388 49.712C81.4067 50.7787 80.4893 51.9093 79.636 53.104C78.7827 54.2987 78.0787 55.4507 77.524 56.56C77.012 57.6267 76.756 58.5227 76.756 59.248C76.756 60.1013 77.012 60.7413 77.524 61.168C78.036 61.5947 78.7827 61.808 79.764 61.808C81.4707 61.808 83.0707 61.4027 84.564 60.592C86.1 59.7387 87.4867 58.7573 88.724 57.648C89.9613 56.496 91.0067 55.4293 91.86 54.448C92.7133 53.424 93.2893 52.7627 93.588 52.464C93.588 52.464 93.652 52.528 93.78 52.656C93.9507 52.784 94.036 52.848 94.036 52.848C93.7373 53.1893 93.1613 53.872 92.308 54.896C91.4547 55.92 90.388 57.0293 89.108 58.224C87.828 59.4187 86.3773 60.4427 84.756 61.296C83.1347 62.1493 81.3853 62.576 79.508 62.576ZM94.0135 62.576C92.8188 62.576 91.9868 62.2987 91.5175 61.744C91.0482 61.1467 90.8135 60.2293 90.8135 58.992C90.8135 57.712 91.2402 56.304 92.0935 54.768C92.9468 53.232 94.0775 51.7813 95.4855 50.416C96.9362 49.008 98.5575 47.856 100.35 46.96C102.142 46.064 103.976 45.616 105.854 45.616C106.878 45.616 107.582 45.8293 107.966 46.256C108.392 46.64 108.606 47.1093 108.606 47.664C108.648 48.2187 108.52 48.688 108.222 49.072C108.222 49.072 108.094 49.2 107.838 49.456C107.624 49.712 107.411 49.9893 107.198 50.288C106.984 50.544 106.878 50.672 106.878 50.672C107.731 49.1787 108.03 48.112 107.774 47.472C107.56 46.7893 106.963 46.448 105.982 46.448C105.256 46.448 104.339 46.7893 103.23 47.472C102.163 48.1547 101.011 49.0507 99.7735 50.16C98.5788 51.2693 97.4482 52.464 96.3815 53.744C95.3148 55.024 94.4402 56.2613 93.7575 57.456C93.1175 58.6507 92.7975 59.6747 92.7975 60.528C92.7975 60.9547 92.9468 61.2747 93.2455 61.488C93.5442 61.7013 93.9282 61.808 94.3975 61.808C95.0375 61.808 95.7842 61.552 96.6375 61.04C97.4908 60.528 98.3655 59.888 99.2615 59.12C100.158 58.352 100.99 57.584 101.758 56.816C102.526 56.048 103.144 55.3867 103.614 54.832C104.126 54.2773 104.403 53.9573 104.446 53.872C104.616 53.6587 105.107 52.9547 105.918 51.76C106.771 50.5653 107.838 49.072 109.118 47.28C110.398 45.488 111.763 43.5467 113.214 41.456C114.707 39.3227 116.179 37.2107 117.63 35.12C119.08 32.9867 120.424 31.0453 121.662 29.296C122.899 27.5467 123.902 26.1173 124.67 25.008C125.438 23.8987 125.864 23.3013 125.95 23.216C126.376 23.4293 126.782 23.5787 127.166 23.664C127.592 23.7067 128.232 23.6853 129.086 23.6C129 23.728 128.488 24.4533 127.55 25.776C126.611 27.056 125.395 28.7413 123.902 30.832C122.408 32.9227 120.787 35.2053 119.038 37.68C117.288 40.1547 115.518 42.6293 113.726 45.104C111.976 47.5787 110.355 49.8613 108.862 51.952C107.368 54.0427 106.152 55.7493 105.214 57.072C104.275 58.352 103.763 59.056 103.678 59.184C103.507 59.44 103.315 59.7813 103.102 60.208C102.931 60.592 102.845 60.9547 102.845 61.296C102.845 61.6373 103.016 61.808 103.358 61.808C104.638 61.808 105.896 61.4453 107.134 60.72C108.414 59.952 109.608 59.0347 110.718 57.968C111.87 56.9013 112.872 55.8773 113.726 54.896C114.579 53.872 115.262 53.0827 115.774 52.528L116.286 52.912C115.816 53.5093 115.112 54.3413 114.174 55.408C113.235 56.4747 112.147 57.5627 110.91 58.672C109.715 59.7387 108.456 60.656 107.134 61.424C105.811 62.192 104.531 62.576 103.294 62.576C102.483 62.576 101.864 62.4267 101.438 62.128C101.011 61.872 100.798 61.5093 100.798 61.04C100.798 60.4853 100.99 59.8667 101.374 59.184C101.8 58.5013 102.248 57.8613 102.718 57.264C103.187 56.624 103.528 56.176 103.742 55.92C103.742 55.92 103.699 55.92 103.614 55.92C103.571 55.8773 103.55 55.856 103.55 55.856C103.507 55.8987 103.166 56.2613 102.526 56.944C101.928 57.6267 101.139 58.416 100.158 59.312C99.2188 60.1653 98.2162 60.9333 97.1495 61.616C96.0828 62.256 95.0375 62.576 94.0135 62.576ZM116.71 62.576C115.899 62.576 115.153 62.3413 114.47 61.872C113.745 61.36 113.382 60.5707 113.382 59.504C113.382 58.3947 113.809 56.9227 114.662 55.088C115.473 53.2533 116.603 51.2053 118.054 48.944C119.505 46.6827 121.126 44.3787 122.918 42.032C124.753 39.6427 126.651 37.36 128.614 35.184C130.619 32.9653 132.582 30.9813 134.502 29.232C136.422 27.44 138.193 26.032 139.814 25.008C141.435 23.9413 142.801 23.408 143.91 23.408C144.635 23.4507 145.105 23.6 145.318 23.856C145.574 24.0693 145.702 24.4107 145.702 24.88C145.702 26.3307 145.254 27.824 144.358 29.36C143.505 30.896 142.353 32.4107 140.902 33.904C139.451 35.3547 137.873 36.72 136.166 38C134.459 39.28 132.753 40.4107 131.046 41.392C129.382 42.3733 127.846 43.1413 126.438 43.696C125.073 44.2507 124.027 44.528 123.302 44.528C122.833 44.528 122.555 44.4 122.47 44.144C122.385 43.8453 122.662 43.696 123.302 43.696C124.795 43.696 126.481 43.2267 128.358 42.288C130.278 41.3067 132.198 40.0693 134.118 38.576C136.038 37.04 137.809 35.4187 139.43 33.712C141.051 31.9627 142.353 30.32 143.334 28.784C144.358 27.248 144.87 25.9893 144.87 25.008C144.87 24.3253 144.529 23.984 143.846 23.984C143.163 23.984 142.203 24.5173 140.966 25.584C139.729 26.608 138.321 27.9947 136.742 29.744C135.206 31.4933 133.563 33.456 131.814 35.632C130.065 37.7653 128.315 39.9413 126.566 42.16C124.731 44.5067 122.897 46.8107 121.062 49.072C119.27 51.3333 117.777 53.4027 116.582 55.28C115.387 57.1573 114.79 58.736 114.79 60.016C114.79 60.656 114.961 61.1467 115.302 61.488C115.601 61.7867 116.113 61.936 116.838 61.936C118.289 61.936 119.675 61.552 120.998 60.784C122.321 60.016 123.494 59.0347 124.518 57.84C125.542 56.6027 126.353 55.3227 126.95 54C127.547 52.6347 127.846 51.376 127.846 50.224C127.846 49.968 127.761 49.52 127.59 48.88C127.462 48.1973 127.462 47.5787 127.59 47.024C127.761 46.4693 128.251 46.192 129.062 46.192C129.489 46.192 129.83 46.3627 130.086 46.704C130.342 47.0027 130.47 47.3867 130.47 47.856C130.47 49.4347 130.086 51.0773 129.318 52.784C128.593 54.4907 127.59 56.0907 126.31 57.584C125.03 59.0773 123.558 60.2933 121.894 61.232C120.273 62.128 118.545 62.576 116.71 62.576ZM129.318 57.776C128.593 57.776 128.081 57.5627 127.782 57.136C127.526 56.7093 127.398 56.2613 127.398 55.792C127.398 55.28 127.398 54.896 127.398 54.64C127.398 54.64 127.526 54.6187 127.782 54.576C128.038 54.4907 128.166 54.4267 128.166 54.384C128.166 54.5547 128.145 54.8747 128.102 55.344C128.059 55.7707 128.102 56.176 128.23 56.56C128.401 56.944 128.763 57.136 129.318 57.136C129.958 57.136 130.619 56.9227 131.302 56.496C132.027 56.0267 132.71 55.4933 133.35 54.896C133.99 54.2987 134.502 53.7653 134.886 53.296C135.313 52.784 135.547 52.464 135.59 52.336C135.59 52.336 135.675 52.4 135.846 52.528C136.017 52.656 136.102 52.72 136.102 52.72C136.017 52.848 135.739 53.1893 135.27 53.744C134.843 54.256 134.289 54.832 133.606 55.472C132.966 56.0693 132.262 56.6027 131.494 57.072C130.769 57.5413 130.043 57.776 129.318 57.776ZM149.327 50.8C149.156 51.1413 148.9 51.44 148.559 51.696C148.26 51.952 148.026 52.1227 147.855 52.208C147.727 52.2507 147.77 52.1227 147.983 51.824C148.751 50.8853 149.242 50.0107 149.455 49.2C149.711 48.3893 149.711 47.7493 149.455 47.28C149.242 46.768 148.815 46.512 148.175 46.512C147.322 46.512 146.319 46.8533 145.167 47.536C144.015 48.2187 142.82 49.1147 141.583 50.224C140.388 51.3333 139.258 52.528 138.191 53.808C137.167 55.0453 136.335 56.2613 135.695 57.456C135.055 58.608 134.735 59.6107 134.735 60.464C134.735 61.104 134.863 61.5093 135.119 61.68C135.375 61.8507 135.631 61.936 135.887 61.936C136.868 61.936 137.999 61.488 139.279 60.592C140.602 59.6533 141.946 58.48 143.311 57.072C144.676 55.664 145.978 54.2347 147.215 52.784C148.452 51.2907 149.519 49.9467 150.415 48.752C151.354 47.5573 151.994 46.7467 152.335 46.32C152.804 46.4907 153.359 46.5547 153.999 46.512C154.682 46.4693 155.258 46.4267 155.727 46.384C155.642 46.512 155.194 47.0453 154.383 47.984C153.615 48.9227 152.676 50.0533 151.567 51.376C150.5 52.656 149.412 53.9787 148.303 55.344C147.236 56.7093 146.34 57.904 145.615 58.928C144.89 59.952 144.527 60.6347 144.527 60.976C144.527 61.4027 144.612 61.68 144.783 61.808C144.996 61.8933 145.316 61.936 145.743 61.936C146.255 61.8933 147.002 61.6587 147.983 61.232C148.964 60.7627 150.223 59.8667 151.759 58.544C153.295 57.2213 155.151 55.2587 157.327 52.656C157.327 52.656 157.412 52.72 157.583 52.848C157.796 52.976 157.903 53.04 157.903 53.04C155.343 56.0267 152.975 58.3733 150.799 60.08C148.623 61.744 146.639 62.576 144.847 62.576C143.908 62.576 143.268 62.4267 142.927 62.128C142.628 61.8293 142.479 61.4027 142.479 60.848C142.479 60.4213 142.65 59.9093 142.991 59.312C143.375 58.672 143.802 58.0533 144.271 57.456C144.74 56.8587 145.124 56.3893 145.423 56.048C145.423 56.048 145.38 56.0267 145.295 55.984C145.21 55.9413 145.167 55.92 145.167 55.92C144.186 57.1147 143.14 58.224 142.031 59.248C140.922 60.272 139.812 61.0827 138.703 61.68C137.636 62.2773 136.591 62.576 135.567 62.576C134.5 62.576 133.754 62.32 133.327 61.808C132.9 61.2533 132.687 60.4213 132.687 59.312C132.687 58.2453 133.028 56.9653 133.711 55.472C134.394 53.936 135.375 52.4427 136.655 50.992C137.935 49.4987 139.471 48.2613 141.263 47.28C143.098 46.2987 145.146 45.808 147.407 45.808C148.516 45.808 149.284 46.0213 149.711 46.448C150.138 46.832 150.33 47.3013 150.287 47.856C150.244 48.4107 150.116 48.9653 149.903 49.52C149.69 50.0747 149.498 50.5013 149.327 50.8ZM169.665 50.544C169.067 50.544 168.619 50.416 168.321 50.16C168.065 49.8613 167.937 49.52 167.937 49.136C167.937 48.752 168.086 48.3893 168.385 48.048C168.726 47.664 169.174 47.472 169.729 47.472C170.07 47.472 170.369 47.5147 170.625 47.6C170.881 47.6853 171.009 47.728 171.009 47.728C171.051 47.3013 170.945 46.9387 170.689 46.64C170.433 46.2987 169.942 46.128 169.217 46.128C168.534 46.128 167.702 46.4267 166.72 47.024C165.739 47.6213 164.715 48.4107 163.649 49.392C162.625 50.3733 161.643 51.44 160.705 52.592C159.809 53.744 159.083 54.9173 158.529 56.112C157.974 57.264 157.697 58.3093 157.697 59.248C157.697 60.3147 158.038 61.0187 158.721 61.36C159.403 61.7013 160.15 61.872 160.961 61.872C162.497 61.872 164.011 61.5093 165.505 60.784C166.998 60.016 168.363 59.0987 169.601 58.032C170.881 56.9227 171.969 55.856 172.865 54.832C173.761 53.808 174.4 53.0187 174.785 52.464L175.361 52.848C175.019 53.36 174.379 54.1493 173.441 55.216C172.502 56.2827 171.35 57.392 169.985 58.544C168.662 59.6533 167.19 60.6133 165.569 61.424C163.947 62.192 162.241 62.576 160.449 62.576C158.998 62.576 157.782 62.256 156.8 61.616C155.776 60.9333 155.264 59.888 155.264 58.48C155.264 57.2853 155.606 55.9627 156.288 54.512C156.971 53.0187 157.91 51.6107 159.105 50.288C160.342 48.9227 161.793 47.8133 163.457 46.96C165.163 46.064 167.041 45.616 169.089 45.616C169.899 45.616 170.603 45.7867 171.201 46.128C171.798 46.4693 172.097 47.0667 172.097 47.92C172.097 48.688 171.819 49.328 171.265 49.84C170.753 50.3093 170.219 50.544 169.665 50.544ZM195.23 23.28C195.699 23.3653 196.233 23.408 196.83 23.408C197.47 23.408 198.067 23.3653 198.622 23.28C198.537 23.3653 198.089 23.9627 197.278 25.072C196.51 26.1387 195.486 27.568 194.206 29.36C192.926 31.152 191.497 33.1573 189.918 35.376C188.339 37.5947 186.697 39.8987 184.99 42.288C183.283 44.6347 181.641 46.9387 180.062 49.2C178.483 51.4613 177.033 53.5307 175.71 55.408C174.43 57.2427 173.385 58.7573 172.574 59.952C171.763 61.1467 171.294 61.8507 171.166 62.064C170.313 61.7653 169.267 61.808 168.03 62.192C168.03 62.192 168.414 61.6587 169.182 60.592C169.95 59.4827 170.995 58.0107 172.318 56.176C173.598 54.2987 175.027 52.208 176.606 49.904C178.227 47.6 179.891 45.2107 181.598 42.736C183.347 40.2613 185.011 37.872 186.59 35.568C188.211 33.264 189.662 31.1947 190.942 29.36C192.265 27.4827 193.31 26.0107 194.078 24.944C194.846 23.8347 195.23 23.28 195.23 23.28ZM193.566 47.984C193.139 47.984 192.755 47.856 192.414 47.6C192.115 47.344 191.966 47.0027 191.966 46.576C191.966 46.1067 192.115 45.7653 192.414 45.552C192.755 45.3387 192.926 45.232 192.926 45.232C192.841 45.104 192.67 45.04 192.414 45.04C192.158 44.9973 191.923 44.976 191.71 44.976C190.899 44.976 190.11 45.36 189.342 46.128C188.574 46.8533 187.785 47.728 186.974 48.752C186.163 49.7333 185.289 50.608 184.35 51.376C183.411 52.1013 182.323 52.464 181.086 52.464C180.574 52.464 180.147 52.4213 179.806 52.336C179.507 52.208 179.358 51.9733 179.358 51.632C179.358 51.2907 179.614 51.0347 180.126 50.864C180.681 50.6507 181.214 50.544 181.726 50.544C182.75 50.544 183.646 50.736 184.414 51.12C185.225 51.4613 185.843 51.9093 186.27 52.464C186.697 52.976 186.91 53.5307 186.91 54.128C186.91 55.024 186.675 55.856 186.206 56.624C185.779 57.3493 185.289 58.0107 184.734 58.608C184.179 59.2053 183.667 59.7387 183.198 60.208C182.771 60.6347 182.558 60.976 182.558 61.232C182.558 61.4453 182.665 61.616 182.878 61.744C183.091 61.8293 183.454 61.872 183.966 61.872C184.862 61.872 185.822 61.5947 186.846 61.04C187.913 60.4427 188.979 59.6747 190.046 58.736C191.155 57.7973 192.222 56.7947 193.246 55.728C194.27 54.6187 195.187 53.552 195.998 52.528L196.51 52.976C195.315 54.2987 193.971 55.7067 192.478 57.2C191.027 58.6933 189.534 59.9733 187.998 61.04C186.462 62.064 184.969 62.576 183.518 62.576C182.793 62.576 182.174 62.4053 181.662 62.064C181.193 61.7653 180.958 61.1893 180.958 60.336C180.958 59.5253 181.171 58.7573 181.598 58.032C182.025 57.264 182.515 56.56 183.07 55.92C183.625 55.2373 184.115 54.6613 184.542 54.192C184.969 53.7227 185.182 53.36 185.182 53.104C185.182 52.5067 184.905 52.1227 184.35 51.952C183.795 51.7813 183.198 51.7173 182.558 51.76C181.961 51.76 181.555 51.76 181.342 51.76C181.043 51.76 180.745 51.76 180.446 51.76C180.147 51.76 179.998 51.7173 179.998 51.632C179.998 51.504 180.169 51.44 180.51 51.44C180.894 51.44 181.171 51.44 181.342 51.44C182.494 51.44 183.497 51.0773 184.35 50.352C185.203 49.6267 186.014 48.7947 186.782 47.856C187.593 46.8747 188.425 46.0213 189.278 45.296C190.174 44.5707 191.241 44.208 192.478 44.208C193.246 44.208 193.886 44.4 194.398 44.784C194.91 45.1253 195.166 45.616 195.166 46.256C195.166 46.768 194.974 47.1947 194.59 47.536C194.249 47.8347 193.907 47.984 193.566 47.984Z" fill="white"/>
</svg>
