                        <svg class="mobile" width="126" height="74" viewBox="0 0 126 74" fill="$web-white" xmlns="http://www.w3.org/2000/svg">
                            <path d="M95 32C95 39.0248 90.5908 45.928 82.3302 51.2682C74.1099 56.5824 62.5138 60 49.5 60C36.4862 60 24.8901 56.5824 16.6698 51.2682C8.40921 45.928 4 39.0248 4 32C4 24.9752 8.40921 18.072 16.6698 12.7318C24.8901 7.41763 36.4862 4 49.5 4C62.5138 4 74.1099 7.41763 82.3302 12.7318C90.5908 18.072 95 24.9752 95 32Z" stroke="$web-white" stroke-width="8"/>
                            <path d="M122 42C122 49.0248 117.591 55.928 109.33 61.2682C101.11 66.5824 89.5138 70 76.5 70C63.4862 70 51.8901 66.5824 43.6698 61.2682C35.4092 55.928 31 49.0248 31 42C31 34.9752 35.4092 28.072 43.6698 22.7318C51.8901 17.4176 63.4862 14 76.5 14C89.5138 14 101.11 17.4176 109.33 22.7318C117.591 28.072 122 34.9752 122 42Z" stroke="$web-white" stroke-width="8"/>
                        </svg>
